<svg id="visual" viewBox="0 0 900 600" width="900" height="600" xmlns="http://www.w3.org/2000/svg" xmlns:xlink="http://www.w3.org/1999/xlink" version="1.1"><rect x="0" y="0" width="900" height="600" fill="#222022"></rect><path d="M0 239L43 314L86 417L129 210L171 223L214 354L257 378L300 207L343 223L386 387L429 259L471 380L514 308L557 379L600 417L643 207L686 386L729 261L771 307L814 411L857 316L900 286L900 0L857 0L814 0L771 0L729 0L686 0L643 0L600 0L557 0L514 0L471 0L429 0L386 0L343 0L300 0L257 0L214 0L171 0L129 0L86 0L43 0L0 0Z" fill="#fcad3c"></path><path d="M0 305L43 358L86 211L129 189L171 212L214 335L257 296L300 322L343 244L386 193L429 298L471 296L514 201L557 202L600 334L643 224L686 204L729 277L771 187L814 334L857 328L900 241L900 0L857 0L814 0L771 0L729 0L686 0L643 0L600 0L557 0L514 0L471 0L429 0L386 0L343 0L300 0L257 0L214 0L171 0L129 0L86 0L43 0L0 0Z" fill="#fe913b"></path><path d="M0 267L43 232L86 286L129 318L171 262L214 193L257 240L300 273L343 334L386 178L429 286L471 181L514 323L557 280L600 329L643 169L686 268L729 271L771 233L814 329L857 229L900 228L900 0L857 0L814 0L771 0L729 0L686 0L643 0L600 0L557 0L514 0L471 0L429 0L386 0L343 0L300 0L257 0L214 0L171 0L129 0L86 0L43 0L0 0Z" fill="#fc7541"></path><path d="M0 227L43 229L86 172L129 251L171 228L214 155L257 159L300 148L343 300L386 269L429 290L471 235L514 144L557 235L600 266L643 219L686 205L729 147L771 279L814 261L857 163L900 187L900 0L857 0L814 0L771 0L729 0L686 0L643 0L600 0L557 0L514 0L471 0L429 0L386 0L343 0L300 0L257 0L214 0L171 0L129 0L86 0L43 0L0 0Z" fill="#f6574a"></path><path d="M0 159L43 182L86 235L129 259L171 141L214 214L257 165L300 120L343 235L386 129L429 165L471 214L514 143L557 150L600 167L643 150L686 168L729 241L771 211L814 182L857 238L900 192L900 0L857 0L814 0L771 0L729 0L686 0L643 0L600 0L557 0L514 0L471 0L429 0L386 0L343 0L300 0L257 0L214 0L171 0L129 0L86 0L43 0L0 0Z" fill="#eb3756"></path><path d="M0 112L43 148L86 172L129 143L171 209L214 169L257 124L300 111L343 189L386 130L429 193L471 105L514 146L557 226L600 171L643 149L686 192L729 116L771 197L814 96L857 112L900 195L900 0L857 0L814 0L771 0L729 0L686 0L643 0L600 0L557 0L514 0L471 0L429 0L386 0L343 0L300 0L257 0L214 0L171 0L129 0L86 0L43 0L0 0Z" fill="#da0962"></path><path d="M0 81L43 140L86 141L129 146L171 182L214 153L257 142L300 102L343 148L386 179L429 152L471 71L514 93L557 74L600 85L643 176L686 185L729 141L771 134L814 170L857 91L900 100L900 0L857 0L814 0L771 0L729 0L686 0L643 0L600 0L557 0L514 0L471 0L429 0L386 0L343 0L300 0L257 0L214 0L171 0L129 0L86 0L43 0L0 0Z" fill="#c4006f"></path><path d="M0 82L43 78L86 63L129 114L171 91L214 102L257 54L300 96L343 58L386 137L429 134L471 114L514 92L557 76L600 115L643 105L686 46L729 138L771 85L814 50L857 55L900 117L900 0L857 0L814 0L771 0L729 0L686 0L643 0L600 0L557 0L514 0L471 0L429 0L386 0L343 0L300 0L257 0L214 0L171 0L129 0L86 0L43 0L0 0Z" fill="#a8007c"></path><path d="M0 44L43 65L86 103L129 38L171 53L214 58L257 69L300 60L343 29L386 95L429 35L471 99L514 60L557 97L600 98L643 69L686 70L729 38L771 61L814 90L857 30L900 107L900 0L857 0L814 0L771 0L729 0L686 0L643 0L600 0L557 0L514 0L471 0L429 0L386 0L343 0L300 0L257 0L214 0L171 0L129 0L86 0L43 0L0 0Z" fill="#840086"></path><path d="M0 13L43 40L86 45L129 38L171 26L214 18L257 0L300 57L343 5L386 9L429 30L471 43L514 18L557 63L600 7L643 22L686 20L729 24L771 43L814 50L857 45L900 20L900 0L857 0L814 0L771 0L729 0L686 0L643 0L600 0L557 0L514 0L471 0L429 0L386 0L343 0L300 0L257 0L214 0L171 0L129 0L86 0L43 0L0 0Z" fill="#56008e"></path></svg>