<svg id="visual" viewBox="0 0 900 600" width="900" height="600" xmlns="http://www.w3.org/2000/svg" xmlns:xlink="http://www.w3.org/1999/xlink" version="1.1"><rect x="0" y="0" width="900" height="600" fill="#222022"></rect><path d="M0 359L43 284L86 181L129 388L171 375L214 244L257 220L300 391L343 375L386 211L429 339L471 218L514 290L557 219L600 181L643 391L686 212L729 337L771 291L814 187L857 282L900 312L900 601L857 601L814 601L771 601L729 601L686 601L643 601L600 601L557 601L514 601L471 601L429 601L386 601L343 601L300 601L257 601L214 601L171 601L129 601L86 601L43 601L0 601Z" fill="#fcad3c"></path><path d="M0 293L43 240L86 387L129 409L171 386L214 263L257 302L300 276L343 354L386 405L429 300L471 302L514 397L557 396L600 264L643 374L686 394L729 321L771 411L814 264L857 270L900 357L900 601L857 601L814 601L771 601L729 601L686 601L643 601L600 601L557 601L514 601L471 601L429 601L386 601L343 601L300 601L257 601L214 601L171 601L129 601L86 601L43 601L0 601Z" fill="#fe913b"></path><path d="M0 331L43 366L86 312L129 280L171 336L214 405L257 358L300 325L343 264L386 420L429 312L471 417L514 275L557 318L600 269L643 429L686 330L729 327L771 365L814 269L857 369L900 370L900 601L857 601L814 601L771 601L729 601L686 601L643 601L600 601L557 601L514 601L471 601L429 601L386 601L343 601L300 601L257 601L214 601L171 601L129 601L86 601L43 601L0 601Z" fill="#fc7541"></path><path d="M0 371L43 369L86 426L129 347L171 370L214 443L257 439L300 450L343 298L386 329L429 308L471 363L514 454L557 363L600 332L643 379L686 393L729 451L771 319L814 337L857 435L900 411L900 601L857 601L814 601L771 601L729 601L686 601L643 601L600 601L557 601L514 601L471 601L429 601L386 601L343 601L300 601L257 601L214 601L171 601L129 601L86 601L43 601L0 601Z" fill="#f6574a"></path><path d="M0 439L43 416L86 363L129 339L171 457L214 384L257 433L300 478L343 363L386 469L429 433L471 384L514 455L557 448L600 431L643 448L686 430L729 357L771 387L814 416L857 360L900 406L900 601L857 601L814 601L771 601L729 601L686 601L643 601L600 601L557 601L514 601L471 601L429 601L386 601L343 601L300 601L257 601L214 601L171 601L129 601L86 601L43 601L0 601Z" fill="#eb3756"></path><path d="M0 486L43 450L86 426L129 455L171 389L214 429L257 474L300 487L343 409L386 468L429 405L471 493L514 452L557 372L600 427L643 449L686 406L729 482L771 401L814 502L857 486L900 403L900 601L857 601L814 601L771 601L729 601L686 601L643 601L600 601L557 601L514 601L471 601L429 601L386 601L343 601L300 601L257 601L214 601L171 601L129 601L86 601L43 601L0 601Z" fill="#da0962"></path><path d="M0 517L43 458L86 457L129 452L171 416L214 445L257 456L300 496L343 450L386 419L429 446L471 527L514 505L557 524L600 513L643 422L686 413L729 457L771 464L814 428L857 507L900 498L900 601L857 601L814 601L771 601L729 601L686 601L643 601L600 601L557 601L514 601L471 601L429 601L386 601L343 601L300 601L257 601L214 601L171 601L129 601L86 601L43 601L0 601Z" fill="#c4006f"></path><path d="M0 516L43 520L86 535L129 484L171 507L214 496L257 544L300 502L343 540L386 461L429 464L471 484L514 506L557 522L600 483L643 493L686 552L729 460L771 513L814 548L857 543L900 481L900 601L857 601L814 601L771 601L729 601L686 601L643 601L600 601L557 601L514 601L471 601L429 601L386 601L343 601L300 601L257 601L214 601L171 601L129 601L86 601L43 601L0 601Z" fill="#a8007c"></path><path d="M0 554L43 533L86 495L129 560L171 545L214 540L257 529L300 538L343 569L386 503L429 563L471 499L514 538L557 501L600 500L643 529L686 528L729 560L771 537L814 508L857 568L900 491L900 601L857 601L814 601L771 601L729 601L686 601L643 601L600 601L557 601L514 601L471 601L429 601L386 601L343 601L300 601L257 601L214 601L171 601L129 601L86 601L43 601L0 601Z" fill="#840086"></path><path d="M0 585L43 558L86 553L129 560L171 572L214 580L257 598L300 541L343 593L386 589L429 568L471 555L514 580L557 535L600 591L643 576L686 578L729 574L771 555L814 548L857 553L900 578L900 601L857 601L814 601L771 601L729 601L686 601L643 601L600 601L557 601L514 601L471 601L429 601L386 601L343 601L300 601L257 601L214 601L171 601L129 601L86 601L43 601L0 601Z" fill="#56008e"></path></svg>